<?xml version="1.0" standalone="no"?>
<!DOCTYPE svg PUBLIC "-//W3C//DTD SVG 20010904//EN"
 "http://www.w3.org/TR/2001/REC-SVG-20010904/DTD/svg10.dtd">
<svg version="1.0" xmlns="http://www.w3.org/2000/svg"
 width="83.000000pt" height="83.000000pt" viewBox="0 0 83.000000 83.000000"
 preserveAspectRatio="xMidYMid meet">
<metadata>
Created by potrace 1.11, written by Peter Selinger 2001-2013
</metadata>
<g transform="translate(0.000000,83.000000) scale(0.100000,-0.100000)"
fill="#000000" stroke="none">
<path d="M414 768 c-43 -46 -70 -94 -89 -161 -20 -69 -23 -174 -7 -202 9 -17
11 -9 12 42 0 36 9 90 21 126 21 64 81 148 95 134 23 -22 6 -184 -30 -286 -9
-24 -16 -45 -16 -47 0 -3 24 14 53 37 78 62 177 100 177 67 0 -15 -48 -77 -84
-108 -34 -29 -105 -70 -123 -70 -6 0 -14 -4 -17 -9 -10 -16 67 0 119 24 78 37
181 145 208 219 7 18 3 18 -55 12 -36 -3 -89 -19 -126 -36 -35 -17 -67 -30
-69 -30 -5 0 -2 22 13 85 7 31 6 131 -1 157 -14 51 -28 78 -39 78 -7 0 -26
-15 -42 -32z"/>
<path d="M90 434 c1 -30 35 -97 71 -138 34 -39 81 -72 134 -94 30 -13 30 -13
-5 15 -71 57 -133 143 -109 152 20 6 116 -68 147 -114 30 -46 62 -155 62 -214
0 -16 5 -33 11 -37 21 -12 5 164 -20 229 -39 99 -150 191 -259 213 -27 5 -32
4 -32 -12z"/>
</g>
</svg>
